<svg width="709" height="588" viewBox="0 0 709 588" fill="none" xmlns="http://www.w3.org/2000/svg">
<path d="M427.961 6.21157C455.156 12.7967 482.297 22.0981 505.568 39.137C568.833 85.6031 590.674 177.671 640.993 240.991C662.999 268.607 691.111 292.005 702.755 326.618C712.016 354.11 709.357 384.69 705.121 413.685C701.211 440.446 696.082 466.966 689.754 493.138C685.866 509.23 681.41 525.446 673.085 539.234C648.127 580.576 597.239 588.416 552.733 587.922C507.231 587.415 461.865 582.256 417.197 572.509C394.825 567.611 372.544 561.561 349.805 559.75C300.421 555.861 251.825 572.097 203.102 581.646C154.378 591.194 100.941 593.252 58.7637 564.216C42.61 552.906 28.9712 537.605 18.8874 519.481C8.80361 501.357 2.54109 480.889 0.577428 459.636C-2.0449 428.666 4.70346 397.716 11.9653 367.671C21.3176 328.902 31.5991 290.427 42.8097 252.247C51.4469 222.799 60.7442 193.331 74.9378 166.723C138.424 47.8006 312.084 -21.8986 427.961 6.21157Z" fill="#F8AB5D"/>
<path d="M211.078 443.565C228.12 446.514 245.12 449.704 262.076 453.134C273.262 455.397 284.723 457.887 294.369 464.617C297.707 466.942 300.934 470.152 301.411 474.474C301.943 479.268 298.697 483.755 294.791 485.771C290.754 487.469 286.438 488.171 282.138 487.829L170.68 488.59C147.061 488.755 121.314 488.117 103.013 471.346C99.8923 468.814 97.4964 465.317 96.1177 461.283C95.4666 459.258 95.3977 457.055 95.9207 454.984C96.4438 452.913 97.5324 451.079 99.0335 449.738C101.135 448.446 103.496 447.78 105.892 447.804L156.303 443.421" fill="url(#paint0_linear_98_1204)"/>
<path d="M193.748 433.605C203.156 431.218 201.304 446.158 203.779 451.714C205.34 454.538 207.297 457.06 209.574 459.184C211.882 461.315 213.394 464.341 213.81 467.662C213.857 468.282 213.742 468.904 213.48 469.453C213.024 470.106 212.373 470.552 211.646 470.708C206.29 472.476 200.53 471.841 195.582 468.938C193.266 467.704 191.345 465.7 190.081 463.197C189.05 460.517 188.561 457.615 188.65 454.698C188.485 448.463 185.936 435.56 193.748 433.605Z" fill="#FDB9A9"/>
<path d="M202.056 464.369C202.056 464.369 228.774 465.644 217.46 475.049C206.145 484.453 189.256 472.765 187.606 470.604C185.955 468.443 187.312 464.78 187.312 464.78L202.056 464.369Z" fill="#ECD7E9"/>
<path d="M188.78 468.506C191.164 471.758 203.707 476.12 209.264 475.688C214.82 475.256 219.808 472.334 219.258 468.301C218.708 464.267 208.897 454.884 207.063 454.925C205.229 454.966 203.744 459.719 200.04 460.728C198.381 461.031 196.681 460.856 195.099 460.219C193.518 459.582 192.107 458.503 190.999 457.085C190.659 456.568 190.171 456.198 189.617 456.037C189.063 455.876 188.476 455.933 187.955 456.201C187.197 458.174 186.877 460.324 187.02 462.467C187.164 464.61 187.768 466.682 188.78 468.506Z" fill="white"/>
<path d="M161.548 439.511C170.955 437.062 169.103 451.982 171.578 457.538C173.119 460.379 175.078 462.905 177.373 465.008C179.683 467.144 181.189 470.179 181.591 473.507C181.645 474.125 181.536 474.747 181.279 475.297C180.823 475.95 180.172 476.396 179.445 476.552C174.081 478.3 168.323 477.666 163.363 474.783C161.06 473.527 159.144 471.528 157.862 469.041C156.831 466.362 156.342 463.459 156.431 460.542C156.193 454.245 153.736 441.384 161.548 439.511Z" fill="#FDB9A9"/>
<path d="M169.855 470.111C169.855 470.111 196.574 471.387 185.259 480.812C173.945 490.237 157.056 478.528 155.479 476.367C153.901 474.206 155.167 470.543 155.167 470.543L169.855 470.111Z" fill="#ECD7E9"/>
<path d="M156.578 474.207C158.962 477.479 171.505 481.842 177.061 481.389C182.618 480.936 187.606 478.055 187.055 474.022C186.505 469.988 176.695 460.605 174.861 460.625C173.027 460.646 171.542 465.441 167.837 466.428C166.174 466.723 164.472 466.537 162.89 465.889C161.308 465.241 159.9 464.152 158.797 462.724C158.454 462.21 157.965 461.844 157.411 461.687C156.857 461.53 156.271 461.591 155.753 461.86C154.986 463.838 154.66 465.997 154.804 468.148C154.947 470.299 155.556 472.379 156.578 474.207Z" fill="white"/>
<path d="M185.754 303.528L173.211 451.693L155.111 449.182C147.959 413.005 149.72 304.804 149.72 304.804L185.754 303.528Z" fill="#473F47"/>
<path d="M173.211 299.516L185.755 447.68L203.891 445.17C214.252 351.373 205.725 292.992 205.725 292.992L173.211 299.516Z" fill="#473F47"/>
<path d="M204.11 245.91C204.348 243.193 204.99 240.498 205.247 237.678C205.837 232.086 205.738 226.428 204.953 220.866C204.105 214.939 202.519 209.176 200.24 203.745C198.15 199.053 194.372 197.057 190.136 194.711C186.584 192.556 182.735 191.088 178.748 190.369C175.935 190.076 173.099 190.25 170.331 190.883C161.804 192.714 150.563 197.653 144.658 205.288C140.294 210.968 139.78 219.075 139.633 226.587C139.45 236.876 139.633 247.288 140.202 257.639C140.202 259.142 140.367 260.644 140.477 262.125C141.247 273.485 142.091 285.256 144.97 296.224C145.868 299.661 146.804 303.118 149.664 304.949C156.321 309.312 166.535 306.904 173.742 305.793C183.314 304.27 193.125 302.665 201.616 297.459C203.374 296.598 204.799 295.057 205.632 293.117C206.384 290.771 205.485 288.26 204.843 285.873C201.964 275.296 204.183 264.163 204.183 253.359C204.183 251.404 203.963 249.387 203.963 247.432C204.055 246.931 204.104 246.421 204.11 245.91Z" fill="white"/>
<path opacity="0.1" d="M186.983 200.328C187.109 203.969 186.986 207.615 186.616 211.235C186.616 214.568 186.891 217.881 186.745 221.195C186.472 226.816 184.738 232.224 181.757 236.752L205.229 231.216C205.714 231.171 206.162 230.912 206.476 230.496C206.645 230.013 206.645 229.477 206.476 228.994L204.441 218.705C203.732 213.549 202.144 208.596 199.765 204.115C197.127 200.209 193.71 197.052 189.789 194.895C188.909 194.381 185.92 191.953 185.076 193.578C184.819 194.278 186.855 199.114 186.983 200.328Z" fill="#020202"/>
<path d="M198.939 226.072C200.112 225.25 201.45 224.77 202.83 224.677C204.211 224.584 205.59 224.879 206.843 225.537C208.075 226.237 209.113 227.3 209.847 228.612C210.58 229.925 210.981 231.437 211.005 232.986C210.89 235.094 210.255 237.125 209.172 238.851C208.6 240.002 207.812 241 206.861 241.773C205.349 242.779 203.581 243.192 201.836 242.946C200.273 242.863 198.744 242.392 197.362 241.568C195.308 240.271 192.631 236.567 193.328 233.665C194.485 230.566 196.439 227.922 198.939 226.072Z" fill="#FDB9A9"/>
<path opacity="0.1" d="M166.169 295.051C167.586 291 168.307 286.685 168.296 282.334C168.052 278.213 167.494 274.124 166.627 270.11L160.521 237.432C159.402 231.443 156.982 202.448 148.84 205.844C146.558 206.931 144.519 208.57 142.867 210.644C141.216 212.718 139.993 215.175 139.285 217.841C137.895 223.181 137.318 228.747 137.58 234.304C137.727 248.708 140.276 263.443 141.926 277.745C142.55 283.157 143.301 303.262 149.683 305.032C150.93 305.402 152.159 306.102 153.351 306.349C155.496 306.781 161.933 309.662 164.739 308.715C164.969 308.654 165.185 308.54 165.375 308.381C165.564 308.221 165.722 308.02 165.839 307.789C167.489 304.147 164.83 296.985 164.83 292.89C165.118 286.22 167.532 279.888 171.634 275.049C176.131 269.839 181.239 265.339 186.817 261.673L194.318 256.22C195.531 255.152 196.998 254.508 198.535 254.368C199.575 254.591 200.631 254.701 201.689 254.697C203.322 254.388 204.293 252.495 204.88 250.766C206.331 246.609 207.006 242.161 206.861 237.699C206.882 237.411 206.849 237.121 206.764 236.848C206.678 236.574 206.543 236.325 206.366 236.115C206.103 235.959 205.81 235.878 205.513 235.878C205.216 235.878 204.923 235.959 204.66 236.115L181.078 244.346C177.588 245.912 173.821 246.546 170.075 246.198C166.407 245.519 162.74 242.267 162.74 238.09" fill="#020202"/>
<path d="M142.348 208.188C134.609 222.593 131.913 239.55 129.365 256.095C128.925 258.115 128.85 260.214 129.144 262.268C129.624 264.088 130.519 265.735 131.742 267.045C132.964 268.356 134.471 269.284 136.113 269.738C139.405 270.604 142.807 270.807 146.162 270.335C153.387 269.8 161.914 269.1 168.039 264.429C170.13 262.824 172 260.828 174.146 259.284C176.233 257.9 178.402 256.676 180.637 255.621C184.911 253.395 188.988 250.722 192.814 247.637C194.135 246.73 195.238 245.472 196.023 243.974C197.27 241.196 196.298 237.8 195.308 234.94C195.269 234.606 195.172 234.283 195.022 233.991C194.872 233.699 194.672 233.443 194.433 233.238C194.195 233.034 193.922 232.884 193.631 232.798C193.341 232.712 193.038 232.692 192.74 232.738C192.407 232.777 192.087 232.904 191.805 233.109C181.488 236.541 170.974 239.181 160.337 241.011C157.403 241.505 158.687 237.924 159.072 236.051C159.695 233.438 160.209 230.804 160.612 228.129C160.99 224.265 160.519 220.356 159.24 216.744C157.961 213.132 155.914 209.926 153.277 207.406C151.922 205.982 150.203 205.068 148.363 204.793C147.204 204.854 146.07 205.187 145.033 205.772C143.997 206.357 143.082 207.18 142.348 208.188Z" fill="white"/>
<path d="M185.716 175.51C185.693 172.67 185.54 169.834 185.258 167.011C185.02 164.542 184.671 162.052 184.231 159.624C184.214 158.9 184.056 158.19 183.768 157.543C183.48 156.896 183.068 156.327 182.562 155.878C179.171 153.53 175.251 152.323 171.266 152.401C168.906 152.037 166.512 152.719 164.592 154.301C162.672 155.884 161.376 158.243 160.979 160.879C160.905 161.41 160.869 161.947 160.869 162.484C160.263 168.658 161.712 174.831 162.519 181.108C163.139 185.876 163.366 190.698 163.197 195.513C165.278 197.074 167.673 198.029 170.166 198.291C171.332 198.286 172.49 198.071 173.595 197.653C174.212 197.505 174.755 197.1 175.117 196.521C175.288 196.008 175.332 195.454 175.245 194.916C175.175 194.412 175.133 193.903 175.117 193.393C174.937 190.554 174.986 187.703 175.264 184.873C175.265 184.638 175.344 184.411 175.484 184.236C175.657 184.174 175.843 184.174 176.016 184.236H176.712C177.968 184.38 179.234 184.38 180.49 184.236C182.001 184.07 183.404 183.286 184.433 182.034C185.576 180.117 186.034 177.789 185.716 175.51Z" fill="#FDB9A9"/>
<path d="M182.985 175.922C182.729 175.469 182.325 174.955 181.885 175.119C181.445 175.284 181.408 175.654 181.28 176.025C180.793 177.545 180.046 178.943 179.079 180.14C178.515 180.877 177.902 181.565 177.246 182.198L175.999 183.433C177.126 183.902 178.304 184.199 179.501 184.318C180.097 184.371 180.696 184.285 181.261 184.066C181.826 183.846 182.345 183.497 182.784 183.042C183.265 182.435 183.65 181.738 183.921 180.984C184.266 180.292 184.508 179.542 184.636 178.762C184.68 178.388 184.647 178.008 184.539 177.651C184.43 177.294 184.25 176.97 184.012 176.704" fill="#DE9F93"/>
<path d="M180.656 156.97C182.728 156.414 185.699 156.167 186.744 153.966C187.11 152.881 187.152 151.693 186.864 150.58C186.577 149.467 185.975 148.488 185.149 147.792C183.712 146.154 181.947 144.926 180.001 144.21C178.055 143.494 175.984 143.311 173.962 143.676C172.706 144.025 171.432 144.293 170.148 144.479C168.424 144.582 166.737 144.006 165.013 143.944C161.977 144.027 159.058 145.277 156.743 147.483C155.27 149.097 153.611 150.481 151.81 151.599C150.901 152.11 149.867 152.265 148.871 152.042C147.874 151.818 146.973 151.228 146.309 150.364C145.958 151.72 145.873 153.145 146.06 154.541C146.247 155.937 146.701 157.271 147.391 158.452C147.041 158.844 146.579 159.086 146.086 159.135C145.593 159.184 145.101 159.036 144.695 158.719C144.805 162.017 145.484 165.26 146.694 168.268C145.59 168.374 144.479 168.305 143.393 168.062C144.002 169.725 144.897 171.236 146.026 172.511C147.156 173.786 148.498 174.798 149.976 175.491C154.011 177.363 158.504 177.548 161.456 181.458C161.823 181.952 162.189 183.125 162.813 183.249C163.436 183.372 163.877 182.631 164.06 181.973C164.756 179.171 164.575 176.185 163.546 173.515C162.834 172.206 162.412 170.724 162.318 169.194C162.446 167.671 164.28 166.477 165.16 167.383C166.04 168.288 166.187 170.449 167.269 170.017C166.04 165.695 167.636 160.263 171.358 158.555C174.201 157.279 177.337 158.04 180.234 157.093L180.656 156.97Z" fill="#DD8049"/>
<path d="M176.603 184.236C173.68 183.63 170.821 182.678 168.076 181.397C167.819 191.398 175.063 193.476 175.063 193.476C174.882 190.637 174.931 187.786 175.209 184.957C175.211 184.721 175.289 184.494 175.43 184.319C175.603 184.257 175.788 184.257 175.961 184.319H176.603V184.236Z" fill="#DE9F93"/>
<path d="M328.716 282.826C367.151 282.826 398.308 247.862 398.308 204.731C398.308 161.6 367.151 126.636 328.716 126.636C290.281 126.636 259.124 161.6 259.124 204.731C259.124 247.862 290.281 282.826 328.716 282.826Z" fill="white"/>
<path d="M537.787 474.783C526.784 478.899 516.167 484.681 516.46 490.567C516.79 497.152 471.716 498.325 467.296 497.646C468.121 495.588 467.425 492.151 468.195 490.114C451.676 485.751 435.426 480.197 419.544 473.487C398.621 464.741 373.699 463.506 351.694 461.14C302.567 455.789 252.284 456.798 204.514 472.046C194.121 475.129 184.065 479.498 174.531 485.072C171.75 486.449 169.399 488.728 167.783 491.616C165.105 497.461 168.608 504.54 172.991 508.882C179.757 515.611 188.56 519.171 197.27 521.928C225.803 531.103 255.599 534.298 285.164 531.353C298 530.077 311.112 527.629 323.875 530.077C336.638 532.526 348.21 539.667 360.698 543.371C373.186 547.075 388.205 546.499 396.934 535.922C399.116 533.288 400.895 530.077 403.7 528.349C407.203 526.168 411.512 526.785 415.51 527.402C452.87 533.218 490.748 533.522 528.178 528.308C531.241 527.875 534.615 527.217 536.522 524.48C537.934 522.422 538.227 519.582 539.768 517.648C541.822 515.035 545.269 514.89 548.442 514.911C566.917 515.012 585.377 513.699 603.694 510.981C608.535 510.26 613.541 509.376 617.612 506.33C621.683 503.284 624.507 497.461 622.967 492.254C621.759 489.066 619.728 486.357 617.135 484.476C601.145 470.812 580.185 465.482 560.288 468.363C552.65 469.839 545.126 471.986 537.787 474.783Z" fill="url(#paint1_linear_98_1204)"/>
<path d="M337.977 478.796C337.977 483.57 352.501 487.439 370.417 487.439C388.333 487.439 402.839 483.57 402.839 478.796C402.967 477.002 402.967 475.199 402.839 473.404C400.528 469.289 386.701 470.132 370.417 470.132C354.738 470.132 341.076 469.453 337.977 473.404C337.785 475.195 337.785 477.005 337.977 478.796Z" fill="#ECD7E9"/>
<path d="M370.418 482.068C388.323 482.068 402.839 478.189 402.839 473.405C402.839 468.62 388.323 464.741 370.418 464.741C352.512 464.741 337.996 468.62 337.996 473.405C337.996 478.189 352.512 482.068 370.418 482.068Z" fill="#ECD7E9"/>
<path d="M370.418 482.068C388.323 482.068 402.839 478.189 402.839 473.405C402.839 468.62 388.323 464.741 370.418 464.741C352.512 464.741 337.996 468.62 337.996 473.405C337.996 478.189 352.512 482.068 370.418 482.068Z" fill="url(#paint2_linear_98_1204)"/>
<path d="M550.936 492.028C568.842 492.028 583.358 488.149 583.358 483.364C583.358 478.579 568.842 474.701 550.936 474.701C533.03 474.701 518.515 478.579 518.515 483.364C518.515 488.149 533.03 492.028 550.936 492.028Z" fill="#4C506D"/>
<path d="M374.14 392.139H366.621V474H374.14V392.139Z" fill="#ECD7E9"/>
<path d="M374.14 392.139H366.621V420.414H374.14V392.139Z" fill="url(#paint3_linear_98_1204)"/>
<path d="M464.106 469.309V481.78H424.349C424.349 481.78 426.678 472.211 442.43 469.309L447.583 464.597L464.106 469.309Z" fill="#ECD7E9"/>
<path d="M464.106 469.309V481.78H424.349C424.349 481.78 426.678 472.211 442.43 469.309L447.583 464.597L464.106 469.309Z" fill="url(#paint4_linear_98_1204)"/>
<path d="M465.921 481.759H423.065V484.949H465.921V481.759Z" fill="#ECD7E9"/>
<path d="M554.072 411.462H547.837V476.078H554.072V411.462Z" fill="#4C506D"/>
<path d="M518.569 483.302C518.569 488.076 533.093 491.966 550.991 491.966C568.889 491.966 583.431 488.076 583.431 483.302C583.541 481.507 583.541 479.706 583.431 477.911C581.12 473.795 567.293 474.639 550.991 474.639C535.33 474.639 521.65 473.959 518.569 477.911C518.368 479.701 518.368 481.512 518.569 483.302Z" fill="#2F3554"/>
<path d="M550.936 486.635C568.842 486.635 583.358 482.756 583.358 477.972C583.358 473.187 568.842 469.308 550.936 469.308C533.03 469.308 518.515 473.187 518.515 477.972C518.515 482.756 533.03 486.635 550.936 486.635Z" fill="#4C506D"/>
<path d="M541.052 399.693H594.69L607.527 321.495C607.923 319.05 607.439 316.529 606.18 314.484C604.922 312.44 602.993 311.038 600.815 310.588C600.3 310.488 599.779 310.44 599.256 310.444H562.58C560.631 310.445 558.742 311.211 557.242 312.608C555.742 314.006 554.724 315.949 554.365 318.099L541.052 399.693Z" fill="#4C506D"/>
<path d="M526.766 399.693H580.404L593.241 321.495C593.637 319.05 593.152 316.529 591.894 314.484C590.636 312.44 588.707 311.038 586.529 310.588C586.033 310.488 585.529 310.44 585.025 310.444H548.349C546.399 310.445 544.511 311.211 543.011 312.608C541.511 314.006 540.493 315.949 540.134 318.099L526.766 399.693Z" fill="#2F3554"/>
<path d="M584.53 387.901H545.874C540.071 387.901 535.366 393.18 535.366 399.692C535.366 406.204 540.071 411.484 545.874 411.484H584.53C590.333 411.484 595.038 406.204 595.038 399.692C595.038 393.18 590.333 387.901 584.53 387.901Z" fill="#4C506D"/>
<path d="M560.911 387.901H522.255C516.452 387.901 511.747 393.18 511.747 399.692C511.747 406.204 516.452 411.484 522.255 411.484H560.911C566.714 411.484 571.419 406.204 571.419 399.692C571.419 393.18 566.714 387.901 560.911 387.901Z" fill="#2F3554"/>
<path d="M569.071 289.535C568.686 289.017 568.276 288.522 567.843 288.054C561.571 281.304 551.339 282.024 544.957 282.23C539.286 282.518 533.604 282.333 527.958 281.675L525.519 281.345H524.712C520.476 280.831 515.396 280.872 513.984 285.79C512.334 291.655 512.15 298.672 511.399 304.763C509.125 322.955 507.859 340.693 507.181 358.926C506.539 375.039 525.629 376.315 535.88 376.315C539.357 376.411 542.835 376.177 546.277 375.615C549.431 375.018 552.292 373.557 555.446 372.899C557.083 372.709 558.636 371.995 559.921 370.841C561.663 368.948 561.663 365.84 561.663 363.124C561.604 356.186 562.107 349.257 563.167 342.422C563.735 339.027 564.615 335.713 565.147 332.339C565.746 329.58 566.582 326.892 567.641 324.313C571.987 311.987 575.416 298.096 569.071 289.535Z" fill="white"/>
<path d="M491.998 291.182C492.367 289.621 492.988 288.149 493.832 286.84C495.812 284.062 499.333 283.465 502.487 283.198C503.972 283.053 505.751 283.198 506.466 284.617C506.795 285.429 506.891 286.335 506.741 287.21C506.29 290.23 506.057 293.285 506.045 296.347C508.12 294.867 510.374 293.73 512.738 292.972C513.361 292.746 519.688 291.943 519.78 292.972C520.128 297.376 520.275 301.8 520.275 306.204C520.408 307.806 520.254 309.421 519.823 310.955C519.391 312.488 518.691 313.91 517.763 315.135C514.419 320.393 510.683 325.322 506.595 329.869C502.207 334.771 496.282 337.549 490.091 337.607C489.13 337.777 488.147 337.678 487.229 337.319C486.311 336.96 485.486 336.352 484.828 335.549C484.243 334.356 483.982 332.997 484.076 331.639C484.091 327.752 484.373 323.872 484.919 320.033C486.521 310.202 488.89 300.548 491.998 291.182Z" fill="white"/>
<path d="M497.261 299.661C497.573 297.11 497.261 291.142 499.095 289.557L499.425 289.352C499.825 289.135 500.26 289.01 500.704 288.983C501.148 288.956 501.593 289.028 502.012 289.194C502.431 289.361 502.817 289.618 503.147 289.953C503.477 290.287 503.745 290.691 503.936 291.142C504.216 292.245 504.279 293.404 504.119 294.537C503.957 297.282 504.025 300.038 504.321 302.769C504.504 304.415 504.981 306.349 506.393 306.884C506.902 307.02 507.43 307.041 507.947 306.946C508.463 306.85 508.957 306.641 509.401 306.329C511.876 304.99 514.183 303.287 516.259 301.266C516.717 300.834 517.304 300.34 517.873 300.567C518.215 300.754 518.497 301.056 518.68 301.431L533.79 327.607C535.055 329.809 536.192 333.101 534.762 334.85C533.332 336.6 530.691 336.003 528.71 335.036C522.881 332.17 517.652 327.964 513.362 322.689C513.066 322.255 512.664 321.926 512.206 321.742C511.885 321.731 511.565 321.792 511.266 321.923C510.967 322.054 510.694 322.251 510.464 322.503C507.727 324.788 504.798 326.766 501.717 328.409C499.425 329.582 496.216 330.467 494.785 327.998C494.199 326.663 494.062 325.136 494.4 323.697L497.261 299.661Z" fill="#D8DAE1"/>
<path d="M552.879 306.327C553.963 303.183 555.751 300.405 558.069 298.261C559.241 297.193 560.664 296.531 562.165 296.356C563.666 296.18 565.18 296.499 566.523 297.273C570.08 299.701 570.374 305.278 569.915 309.929C569.278 316.531 567.987 323.033 566.064 329.314C565.111 332.421 563.57 335.487 562.727 338.553C562.048 341.084 561.957 343.801 561.26 346.455C559.507 353.038 558.557 359.856 558.436 366.725C558.474 367.626 558.337 368.525 558.032 369.359C557.865 369.768 557.575 370.099 557.214 370.294C556.852 370.49 556.441 370.537 556.052 370.429C555.593 370.184 555.21 369.789 554.952 369.297C551.101 363.721 544.371 361.889 538.136 361.066C530.801 360.058 523.465 359.873 516.039 359.379C513.013 359.173 509.272 358.165 508.795 354.851C508.724 353.89 508.894 352.926 509.286 352.067C509.678 351.209 510.277 350.491 511.014 349.995C512.511 349.033 514.162 348.41 515.874 348.163C522.438 346.785 529.315 345.632 534.78 341.331C532.798 340.677 530.969 339.538 529.425 337.998C532.946 340.591 538.594 332.133 541.125 329.972C543.364 327.969 545.232 325.494 546.626 322.687C549.157 317.687 550.752 311.719 552.879 306.327Z" fill="#D8DAE1"/>
<path d="M533.808 286.901C534.608 286.695 535.448 286.819 536.173 287.251C536.895 287.685 537.702 287.911 538.521 287.91C538.562 287.979 538.593 288.056 538.612 288.136C538.848 288.699 538.981 289.309 539.006 289.931C539.031 290.552 538.947 291.173 538.758 291.758C538.569 292.343 538.279 292.88 537.905 293.339C537.53 293.798 537.079 294.17 536.577 294.433C536.131 294.608 535.706 294.843 535.312 295.133C535.021 295.535 534.809 296.001 534.689 296.501C534.569 297 534.544 297.523 534.615 298.034C534.761 306.574 532.524 314.909 530.764 323.222C528.691 332.894 527.261 342.936 528.581 352.793C528.673 353.317 528.673 353.855 528.581 354.378C528.431 354.737 528.226 355.064 527.976 355.345L524.07 360.263C522.915 358.206 520.256 357.568 519.633 355.283C519.481 354.612 519.437 353.915 519.504 353.226C520.198 344.035 521.615 334.931 523.74 326.021C525.704 315.826 528.327 305.805 531.589 296.038C531.754 295.684 531.825 295.284 531.791 294.886C531.716 294.559 531.585 294.251 531.406 293.98C530.324 291.923 532.084 287.642 533.808 286.901Z" fill="#ECD7E9"/>
<path d="M553.669 282.147C548.167 281.592 542.757 281.221 537.311 281.016C533.643 280.892 528.912 279.822 525.538 281.407C526.357 281.454 527.172 281.564 527.977 281.736C533.625 282.373 539.305 282.559 544.976 282.291C551.376 282.065 561.591 281.345 567.88 288.094C564.525 283.691 558.913 282.662 553.669 282.147Z" fill="white"/>
<path d="M548.937 263.709C549.185 263.955 549.495 264.107 549.824 264.144C550.153 264.181 550.484 264.101 550.771 263.915C550 268.586 549.359 272.682 551.302 277.27C552.016 279.243 553.383 280.829 555.117 281.695C551.489 282.538 547.962 283.857 544.609 285.625C542.442 286.697 540.1 287.25 537.732 287.251C537.494 287.251 533.313 286.202 533.936 285.193C537.256 279.719 534.596 270.644 534.596 270.644C537.371 271.558 540.35 271.268 542.942 269.83C545.534 268.393 547.55 265.914 548.588 262.886C548.628 263.194 548.749 263.481 548.937 263.709Z" fill="#8C6239"/>
<path d="M545.36 228.85C545.36 228.85 522.841 227.08 522.419 244.654C522.329 248.294 522.619 251.934 523.281 255.499C523.501 256.754 523.776 257.968 524.088 259.141C526.985 269.863 533.385 277.106 541.216 274.513C554.877 270.027 563.588 233.439 545.36 228.85Z" fill="#A67C52"/>
<path d="M551.798 258.627C552.64 257.75 553.18 256.568 553.324 255.289C553.468 254.01 553.207 252.715 552.586 251.63C552.388 251.278 552.125 250.976 551.816 250.745C551.426 250.522 550.992 250.416 550.554 250.438C550.117 250.46 549.693 250.608 549.322 250.869C548.717 251.239 547.91 252.618 547.158 251.754C546.981 251.506 546.857 251.215 546.797 250.904C546.736 250.594 546.741 250.272 546.81 249.963C546.995 248.255 547.634 246.649 548.643 245.354C548.052 245.135 547.513 244.768 547.068 244.279C546.623 243.79 546.283 243.193 546.076 242.534C543.997 243.017 541.866 243.163 539.75 242.967C539.243 242.958 538.744 242.832 538.283 242.596C537.201 241.999 536.761 240.538 535.789 239.695C534.428 238.956 532.892 238.725 531.406 239.036C529.902 239.036 528.05 238.419 527.83 236.752C526.49 237.383 524.981 237.393 523.634 236.78C522.287 236.167 521.211 234.98 520.641 233.48C519.944 233.774 519.194 233.878 518.454 233.781C517.714 233.684 517.005 233.391 516.387 232.924C515.988 232.321 515.724 231.62 515.615 230.879C515.507 230.138 515.558 229.379 515.764 228.665C516.295 225.516 517.597 222.141 520.275 221.009C518.716 220.083 518.734 217.614 518.973 215.659C518.994 215.09 519.132 214.533 519.376 214.033C520.11 212.696 521.797 212.737 523.044 212.202C524.291 211.667 525.299 210.556 526.528 209.897C527.757 209.239 529.517 209.3 530.104 210.658C531.713 209.589 533.496 208.89 535.348 208.601C536.275 208.474 537.214 208.647 538.055 209.099C538.896 209.551 539.605 210.263 540.098 211.152C541.011 210.575 542.024 210.224 543.069 210.123C543.593 210.088 544.113 210.24 544.555 210.559C544.996 210.877 545.337 211.344 545.526 211.893C545.52 212.025 545.544 212.156 545.595 212.275C545.646 212.394 545.723 212.496 545.819 212.572C545.918 212.634 546.028 212.666 546.14 212.666C546.253 212.666 546.363 212.634 546.461 212.572C547.907 211.951 549.486 211.836 550.991 212.243C551.734 212.466 552.403 212.931 552.912 213.579C553.421 214.227 553.747 215.03 553.851 215.885C555.636 216.463 557.279 217.491 558.656 218.89C559.398 219.484 559.968 220.31 560.294 221.265C560.62 222.221 560.688 223.262 560.49 224.261C561.675 225.623 562.365 227.431 562.427 229.334C562.488 231.236 561.915 233.096 560.82 234.55C561.158 234.729 561.434 235.027 561.606 235.398C561.778 235.77 561.837 236.195 561.773 236.608C561.632 237.436 561.325 238.217 560.875 238.892C560.726 239.105 560.637 239.363 560.618 239.633C560.618 239.962 560.948 240.209 561.168 240.435C561.709 241.083 561.999 241.945 561.975 242.832C561.951 243.719 561.615 244.559 561.04 245.168C560.828 245.408 560.58 245.603 560.306 245.745C560.794 246.158 561.195 246.684 561.483 247.288C561.771 247.892 561.939 248.559 561.975 249.243C561.975 249.58 561.909 249.912 561.781 250.217C561.653 250.521 561.467 250.79 561.236 251.004C561.004 251.219 560.734 251.373 560.443 251.456C560.153 251.54 559.849 251.55 559.555 251.486C559.815 252.252 559.895 253.079 559.79 253.89C559.684 254.7 559.394 255.467 558.949 256.116C557.831 257.721 556.639 257.186 555.282 257.886C553.925 258.586 553.301 260.849 552.366 262.002C552.274 260.849 552.054 259.738 551.798 258.627Z" fill="#2F3554"/>
<path d="M504.21 362.979L473.329 380.739L447.656 464.081L463.152 474.782L493.538 405.597C493.538 405.597 521.888 395.905 529.553 393.086C537.219 390.266 546.754 363.515 546.754 363.515C512.114 363.247 504.21 362.979 504.21 362.979Z" fill="#2F3554"/>
<path d="M528.692 365.798L497.829 383.558L476.245 480.873L492.749 485.585L518.019 408.375C518.019 408.375 546.351 398.683 554.016 395.864C561.682 393.044 559.884 368.659 559.884 368.659C546.626 358.473 528.692 365.798 528.692 365.798Z" fill="#4C506D"/>
<path d="M559.83 286.078C555.007 284.782 543.106 313.139 543.106 313.139L523.906 291.49L512.463 296.326C512.463 296.326 529.627 343.656 543.894 339.17C558.161 334.684 571.603 300.771 571.603 300.771C573.418 294.947 564.671 287.375 559.83 286.078Z" fill="white"/>
<path d="M501.808 271.344C500.452 272.662 499.353 274.281 498.58 276.098C497.727 277.997 497.051 279.99 496.563 282.045C496.104 283.623 495.942 285.291 496.086 286.943C496.165 287.763 496.413 288.551 496.811 289.244C497.209 289.937 497.746 290.516 498.379 290.935C499.356 291.365 500.43 291.435 501.445 291.135C502.46 290.836 503.364 290.182 504.027 289.268C505.29 287.383 506.121 285.178 506.447 282.848C506.736 280.516 507.355 278.251 508.281 276.139C509.053 275.126 509.544 273.881 509.693 272.558C509.271 267.908 503.77 269.533 501.808 271.344Z" fill="#8C6239"/>
<path d="M520.622 288.424C521.503 293.404 516.643 295.4 512.921 294.433C511.799 294.188 510.744 293.652 509.84 292.869C507.694 290.955 507.016 287.662 505.604 285.028C504.613 283.176 503.238 281.633 502.266 279.781C501.714 278.889 501.374 277.855 501.277 276.774C501.181 275.694 501.332 274.604 501.716 273.607C502.926 271.138 505.879 270.623 508.409 270.623C509.705 270.48 511.013 270.684 512.224 271.22C513.503 272.017 514.557 273.201 515.268 274.636C517.744 278.854 519.555 283.518 520.622 288.424Z" fill="#A67C52"/>
<path d="M186.323 370.553C186.323 388.147 265.855 402.429 363.963 402.429C462.071 402.429 541.584 388.147 541.584 370.553C541.584 369.812 541.859 360.984 541.584 360.263C535.386 343.677 458 338.677 363.963 338.677C271.98 338.677 195.419 344.192 186.323 360.263C185.718 361.333 186.323 369.441 186.323 370.553Z" fill="#ECD7E9"/>
<path d="M541.584 370.552C541.584 388.147 462.07 402.428 363.962 402.428C265.854 402.428 186.323 388.147 186.323 370.552C186.323 368.495 186.139 366.437 186.323 364.379C186.525 363.118 186.963 361.919 187.606 360.86C188.186 358.813 189.385 357.057 190.995 355.897C192.606 354.736 194.527 354.242 196.427 354.501C200.535 354.501 204.636 354.597 208.732 354.789C214.388 355.006 220.031 355.542 225.639 356.394C229.82 357.074 233.983 358.02 238.201 358.308C246.911 358.864 255.548 356.58 264.259 356.25C264.903 356.189 265.551 356.23 266.184 356.374C266.882 356.618 267.552 356.949 268.183 357.362C271.328 359.174 274.896 359.85 278.397 359.296C309.994 361.704 341.498 359.296 372.948 355.18C399.226 351.744 425.486 347.566 451.929 346.805C479.583 346.002 507.223 348.946 534.248 355.571C537.916 356.456 542.335 358.432 542.519 362.63C542.647 365.428 539.933 368.268 541.584 370.552Z" fill="url(#paint5_linear_98_1204)"/>
<path d="M363.961 392.14C462.069 392.14 541.601 377.869 541.601 360.264C541.601 342.66 462.069 328.388 363.961 328.388C265.854 328.388 186.322 342.66 186.322 360.264C186.322 377.869 265.854 392.14 363.961 392.14Z" fill="#695B39"/>
<path d="M492.767 485.585V498.035H453.011C453.011 498.035 455.34 488.487 471.092 485.585L476.245 480.873L492.767 485.585Z" fill="#ECD7E9"/>
<path d="M492.767 485.585V498.035H453.011C453.011 498.035 455.34 488.487 471.092 485.585L476.245 480.873L492.767 485.585Z" fill="url(#paint6_linear_98_1204)"/>
<path d="M494.565 498.036H451.709V501.225H494.565V498.036Z" fill="#ECD7E9"/>
<path d="M551.577 279.576C552.175 279.369 552.814 279.369 553.411 279.576C554.346 280.028 554.75 281.345 555.703 281.757C553.503 284 550.532 285.05 548.02 286.819C545.411 288.863 543.076 291.316 541.088 294.104C538.722 292.643 538.869 288.507 536.797 286.552C538.272 286.115 539.677 285.42 540.96 284.494C541.994 283.963 542.988 283.337 543.93 282.621C546.296 281.099 548.886 280.067 551.577 279.576Z" fill="white"/>
<path d="M531.259 281.14C530.507 281.884 529.831 282.719 529.242 283.63L526.895 286.984C526.777 287.115 526.686 287.273 526.626 287.447C526.566 287.62 526.539 287.806 526.546 287.992C526.617 288.206 526.754 288.385 526.933 288.495C527.111 288.604 527.319 288.638 527.518 288.589C527.907 288.462 528.287 288.304 528.655 288.116C529.525 287.927 530.413 287.872 531.296 287.951C532.384 287.828 533.448 287.515 534.45 287.025C534.513 287.014 534.573 286.988 534.627 286.949C534.681 286.91 534.727 286.859 534.762 286.799C534.798 286.671 534.798 286.535 534.762 286.408C534.709 285.231 534.871 284.054 535.238 282.95C535.495 282.127 535.99 281.181 535.495 280.337C534.597 278.711 532.194 280.296 531.259 281.14Z" fill="white"/>
<path d="M479.619 344.214L433.407 346.539L447.582 365.059L498.452 360.265L479.619 344.214Z" fill="white"/>
<path d="M287.511 344.214C290.096 344.502 332.952 358.413 332.952 358.413L308.159 379.835L259.124 365.059L287.511 344.214Z" fill="white"/>
<path d="M490.237 443.771H484.002V508.387H490.237V443.771Z" fill="#4C506D"/>
<path d="M490.237 443.771H484.002V508.387H490.237V443.771Z" fill="url(#paint7_linear_98_1204)"/>
<path d="M454.68 515.673C454.68 520.468 469.203 524.337 487.119 524.337C505.036 524.337 519.541 520.468 519.541 515.673C519.651 513.878 519.651 512.077 519.541 510.282C517.23 506.166 503.404 507.03 487.119 507.03C471.441 507.03 457.779 506.351 454.68 510.282C454.478 512.072 454.478 513.883 454.68 515.673Z" fill="#2F3554"/>
<path d="M487.119 518.944C505.025 518.944 519.541 515.065 519.541 510.28C519.541 505.496 505.025 501.617 487.119 501.617C469.213 501.617 454.698 505.496 454.698 510.28C454.698 515.065 469.213 518.944 487.119 518.944Z" fill="#4C506D"/>
<path d="M458.182 311.782C437.222 306.328 426.696 277.807 406.231 270.337C405.57 270.049 404.837 270.049 404.177 270.337C403.62 270.75 403.201 271.357 402.985 272.065L398.309 283.589L426.384 320.116C428.481 323.042 430.84 325.717 433.426 328.1C439.441 333.245 447.198 334.932 454.643 336.455C459.062 337.381 463.665 338.266 467.974 336.867C473.604 335.035 480.077 326.31 478.225 319.231C476.208 311.473 463.958 313.284 458.182 311.782Z" fill="url(#paint8_linear_98_1204)"/>
<path d="M427.393 430.271C427.301 434.072 427.926 437.852 429.227 441.363H429.41C433.078 441.26 436.599 441.363 440.193 441.61C446.166 442.15 452.106 443.084 457.981 444.409C460.695 444.985 463.482 445.602 466.123 446.219C468.764 446.837 471.294 447.413 473.88 447.969C478.794 449.059 483.526 450.026 488.11 450.726C494.048 447.906 499.349 443.631 503.624 438.214C504.101 437.618 504.541 437.021 504.981 436.424C505.55 435.625 506.082 434.794 506.576 433.934C508.065 431.521 509.032 428.752 509.4 425.847C509.511 424.667 509.474 423.476 509.29 422.307C508.339 418.301 506.098 414.833 503 412.574L502.029 411.792C495.487 406.701 487.647 404.137 479.693 404.486C479.025 404.466 478.356 404.507 477.694 404.61C473.449 404.962 469.244 405.761 465.133 406.997C458.604 408.87 452.076 411.504 445.639 413.808C440.868 415.228 436.304 417.411 432.088 420.291C430.875 421.169 429.818 422.292 428.97 423.604C427.891 425.613 427.344 427.926 427.393 430.271Z" fill="#3E3E54"/>
<path d="M427.961 441.918C428.805 446.754 429.538 451.652 430.199 456.529C431.732 467.92 432.754 479.389 433.261 490.895C433.391 491.968 433.296 493.06 432.986 494.085C431.904 497.11 428.218 497.254 425.321 497.233C422.423 497.213 418.627 498.53 418.701 501.781C418.701 504.312 421.195 505.794 423.322 506.617C429.702 509.071 436.421 510.235 443.164 510.054C443.988 510.096 444.812 509.949 445.584 509.621C450.15 507.358 446.538 501.39 446.061 497.933C445.364 492.891 447.106 487.335 448.188 482.52C450.737 471.304 457.485 461.159 457.192 449.224C456.974 447.707 457.227 446.153 457.907 444.82C459.173 443.071 464.509 445.89 466.196 446.281C468.782 446.878 471.367 447.475 473.953 448.03C487.835 451.076 500.671 454.554 514.957 451.57C515.802 451.462 516.616 451.146 517.34 450.644C518.198 449.8 518.8 448.678 519.064 447.434C521.073 440.396 520.54 432.756 517.579 426.155C514.095 418.438 508.575 415.393 502.102 411.75C494.656 407.511 488.367 404.322 479.766 404.589C479.098 404.569 478.429 404.61 477.767 404.713C473.51 405.103 469.293 405.929 465.169 407.182C454.68 410.228 430.529 414.508 426.513 428.152C425.247 432.452 426.843 435.91 427.613 440.087C427.723 440.622 427.833 441.26 427.961 441.918Z" fill="#3E3E54"/>
<path d="M427.961 441.918C428.805 446.754 429.538 451.652 430.199 456.529C431.732 467.92 432.754 479.389 433.261 490.895C433.391 491.968 433.296 493.06 432.986 494.085C431.904 497.11 428.218 497.254 425.321 497.233C422.423 497.213 418.627 498.53 418.701 501.781C418.701 504.312 421.195 505.794 423.322 506.617C429.702 509.071 436.421 510.235 443.164 510.054C443.988 510.096 444.812 509.949 445.584 509.621C450.15 507.358 446.538 501.39 446.061 497.933C445.364 492.891 447.106 487.335 448.188 482.52C450.737 471.304 457.485 461.159 457.192 449.224C456.974 447.707 457.227 446.153 457.907 444.82C459.173 443.071 464.509 445.89 466.196 446.281C468.782 446.878 471.367 447.475 473.953 448.03C487.835 451.076 500.671 454.554 514.957 451.57C515.802 451.462 516.616 451.146 517.34 450.644C518.198 449.8 518.8 448.678 519.064 447.434C521.073 440.396 520.54 432.756 517.579 426.155C514.095 418.438 508.575 415.393 502.102 411.75C494.656 407.511 488.367 404.322 479.766 404.589C479.098 404.569 478.429 404.61 477.767 404.713C473.51 405.103 469.293 405.929 465.169 407.182C454.68 410.228 430.529 414.508 426.513 428.152C425.247 432.452 426.843 435.91 427.613 440.087C427.723 440.622 427.833 441.26 427.961 441.918Z" fill="url(#paint9_linear_98_1204)"/>
<path d="M408.194 443.195C404.785 447.848 402.067 453.087 400.143 458.711C397.631 465.008 383.199 532.505 382.686 532.361L393.597 535.592C406.175 515.392 416.664 493.652 424.863 470.79C427.228 464.226 427.357 463.608 433.72 462.209C439.313 460.995 444.906 459.657 450.444 458.093C461.27 455.252 471.893 451.51 482.224 446.899C488.482 444.166 494.474 440.718 500.103 436.61C500.904 435.893 501.624 435.071 502.249 434.161C502.539 433.755 502.797 433.321 503.019 432.864C504.01 431.08 504.485 428.995 504.376 426.897C504.355 426.338 504.268 425.784 504.119 425.25C503.719 424.045 503.17 422.909 502.487 421.875C501.43 420.273 500.087 418.935 498.545 417.945C494.666 414.799 490.093 412.906 485.323 412.471C482.114 412.265 478.923 412.986 475.751 412.8C472.908 412.615 470.946 410.866 468.415 410.434C466.493 410.182 464.545 410.378 462.694 411.01C458.452 412.613 454.362 414.681 450.481 417.184L427.577 430.025H427.412L422.827 432.597C418.023 435.313 412.521 438.009 408.707 442.372L408.194 443.195Z" fill="#3E3E54"/>
<path d="M366.566 529.13C364.561 529.282 362.62 529.989 360.918 531.188C360.086 531.809 359.458 532.718 359.127 533.776C358.796 534.834 358.781 535.984 359.084 537.053C359.778 538.495 360.891 539.628 362.238 540.263C370.208 544.629 379.065 546.553 387.911 545.84C389.163 545.924 390.405 545.548 391.45 544.769C392.349 543.745 392.933 542.426 393.119 541.004C393.923 538.427 394.094 535.655 393.614 532.978C392.147 527.566 386.793 528.739 382.978 528.513C377.502 528.162 372.009 528.369 366.566 529.13Z" fill="#3E3E54"/>
<path d="M316.09 380.226V388.064H535.157C535.505 385.444 535.822 382.824 536.124 380.226H316.09Z" fill="#ECD7E9"/>
<path d="M316.09 380.226V388.064H526.464C526.798 385.444 527.103 382.824 527.393 380.226H316.09Z" fill="url(#paint10_linear_98_1204)"/>
<path d="M446.941 290.543C446.024 291.819 444.575 293.198 445.107 294.659C445.419 295.461 446.226 295.852 446.849 296.387C448.428 297.974 449.395 300.188 449.545 302.561C449.691 304.914 450.187 307.223 451.012 309.393C451.447 310.46 452.198 311.325 453.138 311.839C454.078 312.353 455.148 312.485 456.165 312.212C457.32 311.698 458.402 310.401 459.576 310.813C460.75 311.224 460.878 312.335 461.41 313.22C462.137 314.247 463.109 315.021 464.212 315.454C465.315 315.888 466.505 315.962 467.645 315.669C469.916 315.037 472.058 313.919 473.953 312.377C474.772 311.912 475.458 311.199 475.933 310.319C476.209 309.454 476.209 308.508 475.933 307.644C474.995 305.047 473.619 302.678 471.881 300.667C469.014 296.563 467.093 291.728 466.288 286.592C465.719 283.032 465.572 279.019 463.335 276.447C460.273 272.948 453.634 273.71 450.499 276.879C446.941 280.151 449.765 286.448 446.941 290.543Z" fill="url(#paint11_linear_98_1204)"/>
<path d="M449.564 273.711C450.025 274.589 450.699 275.303 451.507 275.769C453.103 276.633 454.497 277.682 456.055 278.629C457.534 279.549 458.648 281.064 459.173 282.868C460.053 286.161 458.769 290.03 459.98 293.157C460.401 293.775 461.318 293.157 461.648 292.581C461.978 292.005 462.107 291.038 462.657 290.523C463.592 289.762 464.912 290.75 465.444 291.902C466.008 293.269 466.086 294.826 465.664 296.255C465.241 297.685 464.35 298.88 463.17 299.599C463.409 300.627 464.637 300.916 465.573 300.669C466.465 300.276 467.404 300.034 468.36 299.948C470.542 300.175 471.661 303.591 473.861 303.714C475.347 303.714 476.502 302.233 477.364 300.833L479.675 297.15C480.023 296.457 480.428 295.803 480.885 295.195C481.435 294.598 482.407 294.454 482.829 293.775C483.25 293.096 482.59 291.717 483.085 290.832C483.322 290.518 483.616 290.265 483.947 290.091C484.664 289.561 485.199 288.774 485.465 287.858C485.732 286.942 485.714 285.952 485.414 285.05C485.301 284.839 485.25 284.595 485.268 284.35C485.268 284.021 485.653 283.835 485.909 283.65C486.657 282.968 487.165 282.011 487.343 280.949C487.521 279.886 487.357 278.787 486.881 277.847C485.879 275.999 484.503 274.441 482.865 273.299C479.491 270.501 475.97 267.249 474.98 262.681C474.83 261.437 474.521 260.224 474.063 259.08C473.804 258.529 473.367 258.111 472.841 257.912C472.316 257.713 471.742 257.748 471.239 258.01C471.508 255.62 471.358 253.194 470.799 250.869C470.686 250.303 470.467 249.77 470.157 249.305C469.824 248.919 469.406 248.639 468.945 248.494C468.485 248.35 467.998 248.345 467.535 248.482C466.611 248.77 465.741 249.244 464.967 249.881C464.967 248.729 463.61 248.276 462.584 248.317C460.63 248.397 458.728 249.044 457.063 250.194C455.398 251.345 454.028 252.96 453.085 254.882C452.941 255.224 452.756 255.543 452.534 255.828C452.104 256.219 451.621 256.532 451.104 256.754C450.323 257.26 449.653 257.954 449.142 258.787C448.632 259.62 448.293 260.571 448.152 261.57C447.877 263.574 447.877 265.615 448.152 267.62C448.243 269.172 448.502 270.706 448.922 272.188C449.073 272.726 449.289 273.239 449.564 273.711Z" fill="#DD8049"/>
<path d="M470.212 308.18C467.925 309.6 465.72 311.181 463.611 312.913C462.944 313.451 462.398 314.156 462.015 314.971C461.808 315.393 461.7 315.868 461.7 316.35C461.7 316.832 461.808 317.306 462.015 317.729C462.749 318.902 464.124 318.284 465.188 317.729C470.062 315.248 475.318 313.85 480.665 313.613C481.033 313.64 481.4 313.55 481.724 313.353C482.049 313.157 482.317 312.861 482.499 312.502C482.591 312.087 482.601 311.655 482.528 311.235C482.455 310.815 482.301 310.419 482.077 310.073C478.795 303.879 474.43 305.361 470.212 308.18Z" fill="white"/>
<path d="M460.878 385.267C457.21 376.727 455.376 367.878 452.754 358.968C446.721 364.256 446.116 373.928 440.651 380.39C439.856 381.399 438.928 382.267 437.9 382.962C434.233 385.308 428.988 384.279 424.954 383.971C422.896 383.801 420.954 382.841 419.452 381.254C418.519 379.897 418.004 378.236 417.985 376.521C417.655 370.656 420.626 365.285 423.487 360.388L443.273 326.372C443.964 324.85 444.965 323.534 446.195 322.529C447.425 321.524 448.849 320.86 450.352 320.589C462.861 316.415 475.579 313.075 488.44 310.588C490.365 310.112 492.344 309.973 494.308 310.176C499.809 311.082 503.477 316.905 506.172 322.297C520.659 350.469 530.928 382.468 529.315 414.9C529.281 416.658 529.035 418.403 528.581 420.086C527.621 422.603 526.068 424.78 524.088 426.383C517.634 432.103 509.125 434.244 500.909 434.326C488.623 434.449 472.431 430.21 463.262 420.394C458.09 414.797 463.262 411.422 465.756 405.989C468.855 398.931 463.665 391.585 460.878 385.267Z" fill="#641259"/>
<path d="M522.09 362.444C521.216 358.129 519.957 353.923 518.33 349.891C511.234 355.715 505.916 366.807 503.275 376.293C500.634 385.78 498.471 395.596 493.079 403.395L487.248 401.132L486.166 405.247C485.322 408.519 487.761 411.853 487.504 415.146C487.218 416.84 486.502 418.406 485.441 419.655C484.38 420.903 483.021 421.781 481.526 422.183C478.092 422.922 474.545 422.638 471.239 421.36C469.074 420.876 467.028 419.872 465.242 418.417C464.356 417.683 463.678 416.676 463.291 415.518C462.903 414.361 462.823 413.102 463.06 411.894C462.358 412.372 461.82 413.1 461.531 413.962C461.242 414.824 461.218 415.769 461.465 416.648C461.981 418.401 462.951 419.941 464.252 421.072C468.323 425.188 473.421 427.246 478.555 429.468C480.954 430.559 483.403 431.507 485.891 432.308C491.673 433.763 497.588 434.454 503.513 434.366C507.181 434.469 509.253 433.831 510.849 429.859C513.123 424.159 513.288 417.738 513.838 411.524C515.466 394.951 518.225 378.543 522.09 362.444Z" fill="url(#paint12_linear_98_1204)"/>
<path d="M502.487 422.04C502.487 423.81 502.487 425.621 502.597 427.452C502.707 429.284 502.817 431.136 503.019 433.029C503.041 433.451 503.091 433.87 503.165 434.284C503.312 435.581 503.495 436.877 503.697 438.215C503.706 438.238 503.71 438.262 503.71 438.287C503.71 438.312 503.706 438.336 503.697 438.359L504.082 440.581C503.513 444.613 503.971 448.743 505.402 452.496C508.667 452.627 511.935 452.572 515.195 452.332C521.537 451.89 527.813 450.633 533.9 448.586C540.132 445.008 545.886 440.463 550.991 435.087C552.403 433.735 553.53 432.048 554.291 430.148C554.84 428.088 555.027 425.929 554.842 423.789C554.643 411.912 556.014 400.067 558.913 388.641C559.554 386.151 560.27 383.682 561.04 381.254C561.92 378.476 562.874 375.759 563.974 373.022C566.486 366.664 569.475 360.469 570.667 353.658C571.29 349.935 571.328 346.118 570.777 342.381C570.742 341.716 570.517 341.081 570.135 340.57C569.841 340.315 569.506 340.127 569.147 340.017C568.788 339.908 568.414 339.879 568.045 339.932C560.398 340.159 553.374 345.077 545.893 346.517C542.023 347.258 537.989 347.052 534.23 348.308C528.951 350.363 524.456 354.378 521.485 359.688C519.803 362.414 518.313 365.283 517.029 368.269C515.067 372.755 513.233 377.035 511.527 381.192C510.537 383.682 509.602 386.151 508.74 388.58C505.932 396.253 503.974 404.283 502.908 412.492V412.636C502.589 415.757 502.448 418.898 502.487 422.04Z" fill="#3E3E54"/>
<path d="M502.487 422.04C502.487 423.81 502.487 425.621 502.597 427.452C502.707 429.284 502.817 431.136 503.019 433.029C503.041 433.451 503.091 433.87 503.165 434.284C503.312 435.581 503.495 436.877 503.697 438.215C503.706 438.238 503.71 438.262 503.71 438.287C503.71 438.312 503.706 438.336 503.697 438.359L504.082 440.581C503.513 444.613 503.971 448.743 505.402 452.496C508.667 452.627 511.935 452.572 515.195 452.332C521.537 451.89 527.813 450.633 533.9 448.586C540.132 445.008 545.886 440.463 550.991 435.087C552.403 433.735 553.53 432.048 554.291 430.148C554.84 428.088 555.027 425.929 554.842 423.789C554.643 411.912 556.014 400.067 558.913 388.641C559.554 386.151 560.27 383.682 561.04 381.254C561.92 378.476 562.874 375.759 563.974 373.022C566.486 366.664 569.475 360.469 570.667 353.658C571.29 349.935 571.328 346.118 570.777 342.381C570.742 341.716 570.517 341.081 570.135 340.57C569.841 340.315 569.506 340.127 569.147 340.017C568.788 339.908 568.414 339.879 568.045 339.932C560.398 340.159 553.374 345.077 545.893 346.517C542.023 347.258 537.989 347.052 534.23 348.308C528.951 350.363 524.456 354.378 521.485 359.688C519.803 362.414 518.313 365.283 517.029 368.269C515.067 372.755 513.233 377.035 511.527 381.192C510.537 383.682 509.602 386.151 508.74 388.58C505.932 396.253 503.974 404.283 502.908 412.492V412.636C502.589 415.757 502.448 418.898 502.487 422.04Z" fill="url(#paint13_linear_98_1204)"/>
<path d="M398.071 262.351C393.963 258.441 389.709 254.428 384.574 252.535C384.243 252.342 383.875 252.241 383.501 252.241C383.128 252.241 382.76 252.342 382.428 252.535C382.104 252.854 381.889 253.291 381.823 253.77C381.724 254.801 381.837 255.845 382.155 256.819C382.473 257.793 382.987 258.672 383.657 259.388C384.979 260.823 386.171 262.401 387.215 264.1C385.294 263.711 383.32 263.81 381.438 264.388C381.067 264.47 380.728 264.678 380.466 264.985C380.341 265.259 380.284 265.566 380.3 265.874C380.316 266.181 380.405 266.478 380.558 266.734C381.302 267.981 382.305 269.008 383.481 269.724C384.656 270.441 385.969 270.827 387.306 270.85C387.808 270.869 388.296 271.039 388.718 271.344C389.617 272.187 389.03 273.813 389.195 275.089C389.326 275.702 389.581 276.274 389.941 276.759C390.3 277.244 390.754 277.631 391.267 277.888C392.258 278.464 393.376 278.752 394.421 279.246C395.938 280.353 397.613 281.161 399.373 281.633C402.839 281.798 406.304 276.632 406.341 272.969C406.414 268.977 400.473 264.635 398.071 262.351Z" fill="url(#paint14_linear_98_1204)"/>
<path d="M199.232 442.865H192.997V507.481H199.232V442.865Z" fill="#4C506D"/>
<path d="M199.232 442.865H192.997V507.481H199.232V442.865Z" fill="url(#paint15_linear_98_1204)"/>
<path d="M228.537 514.767C228.537 519.541 214.013 523.409 196.097 523.409C178.181 523.409 163.675 519.541 163.675 514.767C163.565 512.971 163.565 511.17 163.675 509.375C165.986 505.259 179.813 506.103 196.097 506.103C211.776 506.103 225.437 505.424 228.537 509.375C228.738 511.165 228.738 512.976 228.537 514.767Z" fill="#2F3554"/>
<path d="M196.097 518.038C214.003 518.038 228.518 514.16 228.518 509.375C228.518 504.59 214.003 500.711 196.097 500.711C178.191 500.711 163.675 504.59 163.675 509.375C163.675 514.16 178.191 518.038 196.097 518.038Z" fill="#4C506D"/>
<path d="M255.824 429.345C255.916 433.146 255.291 436.926 253.99 440.437H253.806C250.139 440.437 246.636 440.436 243.042 440.683C237.063 441.225 231.117 442.159 225.236 443.482C222.522 444.058 219.735 444.676 217.112 445.293L209.337 447.063C204.422 448.133 199.691 449.121 195.107 449.8C189.178 446.962 183.88 442.69 179.593 437.288L178.236 435.498C177.686 434.716 177.154 433.893 176.659 433.028C175.157 430.621 174.183 427.85 173.816 424.941C173.697 423.762 173.734 422.569 173.926 421.401C174.877 417.389 177.117 413.914 180.216 411.647L181.188 410.865C187.73 405.775 195.569 403.21 203.524 403.56C204.192 403.539 204.861 403.581 205.523 403.683C209.773 404.035 213.985 404.835 218.102 406.071C224.612 407.943 231.141 410.577 237.577 412.882C242.346 414.318 246.909 416.508 251.129 419.385C252.345 420.25 253.404 421.367 254.247 422.677C255.326 424.687 255.873 426.999 255.824 429.345Z" fill="#3E3E54"/>
<path d="M255.273 440.992C254.411 445.849 253.678 450.726 253.018 455.624C252.119 462.353 251.734 469.205 250.744 475.893C249.754 482.581 249.974 489.208 248.91 495.793C248.434 498.269 248.176 500.792 248.14 503.324C248.422 506.821 249.215 510.241 250.487 513.449C250.322 513.881 249.754 513.84 249.332 513.716C246.956 513.117 244.653 512.198 242.473 510.98C240.27 509.751 238.523 507.688 237.541 505.156C236.239 501.39 237.394 497.418 237.247 493.55C236.857 489.467 236.095 485.44 234.973 481.532C232.424 470.317 225.694 460.171 225.969 448.256C226.206 446.733 225.952 445.165 225.254 443.832C223.989 442.083 218.652 444.923 216.984 445.293L209.208 447.063C195.327 450.088 182.508 453.566 168.223 450.602C167.373 450.475 166.556 450.152 165.821 449.656C164.964 448.812 164.361 447.69 164.097 446.446C162.116 439.405 162.648 431.776 165.583 425.167C169.067 417.471 174.586 414.405 181.06 410.763C188.505 406.647 194.795 403.334 203.395 403.601C204.064 403.581 204.732 403.622 205.394 403.725C209.658 404.113 213.881 404.939 218.011 406.194C228.482 409.24 252.633 413.52 256.649 427.164C257.914 431.485 256.337 434.922 255.567 439.12C255.493 439.716 255.383 440.354 255.273 440.992Z" fill="url(#paint16_linear_98_1204)"/>
<path d="M236.661 503.263C236.781 503.113 236.924 502.988 237.082 502.893C237.742 502.584 238.348 503.428 238.733 504.128C240.356 507.113 242.783 509.441 245.664 510.775C246.013 510.982 246.417 511.04 246.801 510.939C247.223 510.754 247.443 510.219 247.792 509.869C248.048 509.645 248.348 509.494 248.668 509.429C248.987 509.365 249.316 509.389 249.625 509.499C250.252 509.752 250.84 510.113 251.368 510.569C253.017 511.788 254.569 513.165 256.007 514.684C256.741 515.508 257.456 516.742 257.016 517.771C256.722 518.325 256.259 518.742 255.714 518.944C253.702 519.658 251.532 519.57 249.57 518.697C245.903 517.339 242.62 514.808 239.026 513.223C238.782 513.083 238.512 513.012 238.238 513.018C238.032 513.053 237.83 513.108 237.632 513.182C237.306 513.139 236.993 513.012 236.716 512.813C236.44 512.613 236.207 512.345 236.037 512.03C235.119 510.758 234.672 509.138 234.788 507.507C234.904 505.875 235.574 504.356 236.661 503.263Z" fill="#3E3E54"/>
<path d="M272.529 443.442C274.105 448.034 274.859 452.929 274.748 457.847C274.748 470.441 271.63 482.747 268.586 494.889C267.303 499.992 266.221 505.178 264.717 510.302C263.617 513.965 262.15 516.681 264.259 520.488C264.714 521.204 265.137 521.946 265.524 522.711C265.696 523.107 265.763 523.55 265.718 523.987C265.672 524.425 265.516 524.839 265.267 525.18C264.442 526.024 263.14 525.468 262.113 525.015C259.618 524.215 257.169 523.246 254.778 522.114C250.267 519.253 252.009 515.632 252.724 511.248C253.604 505.96 254.191 500.548 254.686 495.197C255.91 484.304 255.663 473.267 253.953 462.457C253.819 461.177 253.368 459.965 252.651 458.959C251.725 458.099 250.585 457.582 249.386 457.477C232.882 454.205 216.745 453.217 200.993 446.056C194.74 443.323 188.755 439.875 183.132 435.767C182.317 435.062 181.589 434.238 180.968 433.318C180.693 432.906 180.436 432.474 180.197 432.042C179.223 430.242 178.75 428.157 178.84 426.054C178.88 425.497 178.966 424.946 179.097 424.407C179.516 423.214 180.07 422.086 180.748 421.053C181.805 419.445 183.148 418.1 184.69 417.102C188.57 413.973 193.133 412.082 197.894 411.628C201.103 411.443 204.293 412.163 207.466 411.957C210.308 411.793 212.27 410.023 214.801 409.591C216.723 409.339 218.671 409.535 220.523 410.167C224.761 411.779 228.851 413.847 232.736 416.341L246.948 424.305C253.531 427.988 261.618 430.478 267.394 435.602C269.68 437.674 271.449 440.375 272.529 443.442Z" fill="url(#paint17_linear_98_1204)"/>
<path d="M257.51 416.588C263.53 420.766 268.519 426.573 272.02 433.476C275.522 440.378 277.425 448.157 277.553 456.098C265.877 465.938 252.418 472.78 238.127 476.142C236.498 476.677 234.767 476.677 233.139 476.142C231.795 475.375 230.613 474.295 229.673 472.973C216.58 457.889 193.529 459.391 179.776 445.048C174.568 439.615 171.175 430.252 175.283 423.728C176.956 421.424 179.035 419.533 181.389 418.172C192.08 411.032 204.678 400.351 217.607 402.821C230.535 405.29 246.342 409.035 257.51 416.588Z" fill="#ECD7E9"/>
<path d="M262.552 467.293C256.006 459.452 254.795 447.887 253.915 437.166C252.05 438.999 249.94 440.492 247.662 441.59L246.543 438.256C246.511 437.98 246.384 437.728 246.189 437.555C245.993 437.382 245.746 437.301 245.498 437.33C245.361 437.354 245.23 437.41 245.113 437.495C235.784 441.013 226.017 442.847 216.176 442.928C212.508 442.928 208.419 442.619 205.338 440.191C202.257 437.763 200.662 432.536 202.917 429.161C194.97 431.591 186.873 433.358 178.693 434.449C178.356 434.436 178.021 434.499 177.706 434.633C177.391 434.767 177.103 434.971 176.859 435.231C176.236 436.137 176.859 437.454 177.391 438.38C183.948 448.687 193.806 455.745 204.898 458.073C207.997 458.711 224.428 465.585 231.8 476.388C232.316 477.074 232.994 477.583 233.756 477.856C234.519 478.129 235.334 478.155 236.109 477.932L262.552 467.293Z" fill="url(#paint18_linear_98_1204)"/>
<path d="M163.492 437.72C161.016 437.72 158.137 438.173 156.872 440.539C156.511 441.284 156.322 442.119 156.322 442.967C156.322 443.816 156.511 444.651 156.872 445.396C157.62 446.88 158.761 448.066 160.136 448.791C161.884 449.678 163.737 450.274 165.638 450.561C173.505 452.228 181.372 453.895 189.257 455.459C193.236 456.241 197.252 457.002 201.25 457.702C204.441 458.257 207.375 460.006 210.621 460.706C213.866 461.406 218.176 461.9 220.89 459.307C221.737 458.486 222.378 457.432 222.751 456.248C223.124 455.065 223.216 453.793 223.017 452.557C222.905 451.693 222.56 450.889 222.027 450.252C221.603 449.819 221.12 449.464 220.596 449.203C214.808 446.338 208.711 444.331 202.46 443.235L189.624 440.333C185.734 439.14 181.767 438.294 177.759 437.802C173.009 437.597 168.315 437.576 163.492 437.72Z" fill="#3E3E54"/>
<path d="M163.492 437.72C161.016 437.72 158.137 438.173 156.872 440.539C156.511 441.284 156.322 442.119 156.322 442.967C156.322 443.816 156.511 444.651 156.872 445.396C157.62 446.88 158.761 448.066 160.136 448.791C161.884 449.678 163.737 450.274 165.638 450.561C173.505 452.228 181.372 453.895 189.257 455.459C193.236 456.241 197.252 457.002 201.25 457.702C204.441 458.257 207.375 460.006 210.621 460.706C213.866 461.406 218.176 461.9 220.89 459.307C221.737 458.486 222.378 457.432 222.751 456.248C223.124 455.065 223.216 453.793 223.017 452.557C222.905 451.693 222.56 450.889 222.027 450.252C221.603 449.819 221.12 449.464 220.596 449.203C214.808 446.338 208.711 444.331 202.46 443.235L189.624 440.333C185.734 439.14 181.767 438.294 177.759 437.802C173.009 437.597 168.315 437.576 163.492 437.72Z" fill="url(#paint19_linear_98_1204)"/>
<path d="M232.791 275.788C231.897 275.033 230.908 274.43 229.857 273.998C226.721 272.681 222.338 272.599 219.844 275.439C217.351 278.278 217.461 282.024 216.91 285.604C216.083 290.737 214.158 295.567 211.299 299.68C209.556 301.679 208.18 304.042 207.246 306.635C206.99 307.511 206.99 308.456 207.246 309.331C207.723 310.218 208.417 310.932 209.245 311.389C211.133 312.931 213.269 314.049 215.535 314.682C216.281 314.916 217.067 314.943 217.824 314.76C218.581 314.577 219.287 314.19 219.881 313.632C220.287 313.09 220.811 312.674 221.402 312.425C221.993 312.176 222.632 312.103 223.255 312.212C224.544 312.647 225.873 312.909 227.216 312.994C228.251 312.813 229.218 312.305 230.004 311.528C230.791 310.752 231.363 309.74 231.654 308.611C232.243 306.363 232.57 304.039 232.626 301.697C233.25 295.523 235.358 289.596 235.688 283.382C235.823 281.944 235.627 280.491 235.12 279.162C234.612 277.833 233.811 276.672 232.791 275.788Z" fill="url(#paint20_linear_98_1204)"/>
<path d="M201.158 308.942C200.934 309.288 200.78 309.684 200.707 310.104C200.634 310.523 200.644 310.956 200.736 311.37C200.917 311.732 201.185 312.03 201.509 312.23C201.833 312.43 202.201 312.525 202.57 312.502C207.925 312.762 213.183 314.196 218.047 316.721C219.111 317.277 220.486 317.873 221.22 316.721C221.427 316.295 221.535 315.817 221.535 315.332C221.535 314.846 221.427 314.369 221.22 313.943C220.834 313.164 220.287 312.5 219.624 312.008C217.52 310.262 215.314 308.674 213.023 307.255C208.787 304.456 204.422 302.975 201.158 308.942Z" fill="white"/>
<path d="M217.497 405.104C219.973 410.66 225.162 414.035 219.973 419.612C210.804 429.531 194.611 433.667 182.325 433.543C174.109 433.543 165.601 431.342 159.146 425.621C157.167 424.015 155.619 421.829 154.671 419.303C154.199 417.632 153.951 415.891 153.938 414.138C152.324 381.645 162.575 349.666 177.062 321.535C179.812 316.144 183.425 310.34 188.926 309.435C190.889 309.211 192.872 309.35 194.795 309.847C207.657 312.317 220.375 315.65 232.882 319.827C234.546 320.24 236.114 321.039 237.485 322.173C238.468 323.169 239.309 324.328 239.979 325.61L259.747 359.626C262.627 364.544 265.579 369.915 265.249 375.759C265.233 377.481 264.718 379.149 263.782 380.513C262.278 382.094 260.336 383.046 258.28 383.209C251.068 384.508 243.686 383.945 236.697 381.562C240.603 378.208 239.374 371.273 236.807 366.499C235.063 363.324 232.906 360.459 230.407 358C228.735 367.185 226.024 376.092 222.338 384.505C219.661 390.699 214.361 398.046 217.497 405.104Z" fill="#FFC400"/>
<path d="M236.44 276.798C237.041 274.735 237.105 272.522 236.623 270.419C235.814 267.333 234.405 264.487 232.497 262.085C228.83 257.125 224.044 252.783 218.377 251.795C203.047 248.976 185.222 266.53 179.391 281.037C175.723 290.154 174.623 300.258 172.569 310.012C170.515 319.766 167.196 329.705 160.356 336.105C157.569 338.719 154.176 340.777 152.507 344.337C150.472 348.72 151.664 354.317 154.341 358.227C156.817 361.787 159.971 363.207 163.162 365.532C166.021 367.858 168.3 370.969 169.782 374.566C173.303 382.201 174.678 391.029 178.951 398.149L185.222 394.26C190.613 391.317 195.563 387.45 199.893 382.798C204.019 377.921 206.806 371.109 205.779 364.483C205.174 360.47 203.248 356.848 202.111 352.98C198.591 340.777 206.293 335.9 212.986 328.656C215.266 326.132 216.977 323.034 217.978 319.62C218.979 316.207 219.242 312.574 218.744 309.024C218.113 307.103 218.076 305 218.638 303.052C219.2 301.104 220.329 299.424 221.843 298.282C224.704 294.393 222.448 289.372 225.822 285.77C228.445 282.992 232.442 282.663 234.9 279.597C235.583 278.796 236.108 277.842 236.44 276.798Z" fill="#2F3554"/>
<path d="M161.126 361.539C161.968 357.226 163.197 353.021 164.794 348.986C171.964 354.707 177.208 365.881 179.849 375.285C182.49 384.69 184.654 394.608 190.045 402.408L195.876 400.144L196.958 404.26C197.802 407.511 195.363 410.845 195.62 414.137C195.906 415.832 196.622 417.398 197.683 418.646C198.744 419.895 200.103 420.773 201.598 421.175C205.032 421.913 208.579 421.63 211.885 420.352C214.031 419.882 216.058 418.892 217.827 417.45C218.713 416.711 219.39 415.7 219.777 414.539C220.164 413.379 220.245 412.117 220.009 410.906C220.714 411.385 221.256 412.117 221.545 412.983C221.834 413.849 221.855 414.799 221.604 415.681C221.088 417.434 220.118 418.974 218.817 420.105C214.764 424.221 209.648 426.278 204.514 428.501C202.114 429.585 199.666 430.526 197.178 431.32C191.394 432.765 185.481 433.455 179.556 433.378C175.888 433.378 173.816 432.843 172.22 428.851C169.947 423.151 169.781 416.73 169.231 410.536C167.653 393.995 164.943 377.614 161.126 361.539Z" fill="url(#paint21_linear_98_1204)"/>
<path d="M180.748 421.134C180.748 422.904 180.748 424.694 180.638 426.526C180.528 428.357 180.4 430.209 180.198 432.123C180.219 432.54 180.175 432.957 180.07 433.358C179.904 434.654 179.739 435.95 179.519 437.288V437.432C179.409 438.152 179.281 438.893 179.153 439.655C179.701 443.694 179.244 447.824 177.832 451.59C174.567 451.713 171.299 451.652 168.04 451.405C161.697 450.973 155.42 449.716 149.335 447.66C143.106 444.075 137.353 439.531 132.244 434.16C130.827 432.805 129.699 431.11 128.943 429.201C128.394 427.148 128.207 424.995 128.393 422.863C128.595 410.95 127.217 399.069 124.304 387.612C123.68 385.122 122.965 382.652 122.177 380.203C121.296 377.446 120.343 374.709 119.261 371.972C116.749 365.613 113.76 359.44 112.549 352.608C111.906 348.882 111.85 345.058 112.384 341.31C112.42 340.645 112.645 340.01 113.026 339.499C113.32 339.244 113.656 339.056 114.015 338.946C114.373 338.837 114.748 338.808 115.117 338.861C122.763 339.088 129.787 344.027 137.269 345.447C141.138 346.187 145.172 346.002 148.932 347.257C154.248 349.274 158.781 353.286 161.768 358.617C163.45 361.343 164.94 364.212 166.224 367.198C168.187 371.684 170.02 375.964 171.726 380.121C172.716 382.632 173.56 385.081 174.513 387.529C177.34 395.188 179.299 403.215 180.345 411.421V411.565C180.654 414.742 180.789 417.938 180.748 421.134Z" fill="#3E3E54"/>
<path d="M180.748 421.134C180.748 422.904 180.748 424.694 180.638 426.526C180.528 428.357 180.4 430.209 180.198 432.123C180.219 432.54 180.175 432.957 180.07 433.358C179.904 434.654 179.739 435.95 179.519 437.288V437.432C179.409 438.152 179.281 438.893 179.153 439.655C179.701 443.694 179.244 447.824 177.832 451.59C174.567 451.713 171.299 451.652 168.04 451.405C161.697 450.973 155.42 449.716 149.335 447.66C143.106 444.075 137.353 439.531 132.244 434.16C130.827 432.805 129.699 431.11 128.943 429.201C128.394 427.148 128.207 424.995 128.393 422.863C128.595 410.95 127.217 399.069 124.304 387.612C123.68 385.122 122.965 382.652 122.177 380.203C121.296 377.446 120.343 374.709 119.261 371.972C116.749 365.613 113.76 359.44 112.549 352.608C111.906 348.882 111.85 345.058 112.384 341.31C112.42 340.645 112.645 340.01 113.026 339.499C113.32 339.244 113.656 339.056 114.015 338.946C114.373 338.837 114.748 338.808 115.117 338.861C122.763 339.088 129.787 344.027 137.269 345.447C141.138 346.187 145.172 346.002 148.932 347.257C154.248 349.274 158.781 353.286 161.768 358.617C163.45 361.343 164.94 364.212 166.224 367.198C168.187 371.684 170.02 375.964 171.726 380.121C172.716 382.632 173.56 385.081 174.513 387.529C177.34 395.188 179.299 403.215 180.345 411.421V411.565C180.654 414.742 180.789 417.938 180.748 421.134Z" fill="url(#paint22_linear_98_1204)"/>
<path d="M251.495 515.857C251.599 515.696 251.738 515.568 251.899 515.487C252.577 515.178 253.182 516.022 253.549 516.721C255.172 519.707 257.6 522.035 260.481 523.368C260.83 523.575 261.234 523.634 261.618 523.533C262.058 523.347 262.278 522.812 262.608 522.463C262.864 522.238 263.165 522.087 263.484 522.023C263.804 521.958 264.132 521.982 264.442 522.092C265.068 522.333 265.651 522.695 266.166 523.162C267.818 524.376 269.371 525.754 270.805 527.278C271.539 528.101 272.254 529.336 271.814 530.365C271.536 530.922 271.076 531.335 270.53 531.517C268.515 532.242 266.338 532.162 264.369 531.291C260.701 529.933 257.437 527.401 253.843 525.817C253.591 525.68 253.315 525.61 253.036 525.611C252.836 525.646 252.64 525.702 252.449 525.776C252.123 525.732 251.809 525.606 251.533 525.406C251.256 525.207 251.024 524.939 250.854 524.623C249.938 523.349 249.493 521.728 249.613 520.096C249.732 518.464 250.406 516.947 251.495 515.857Z" fill="#3E3E54"/>
<path d="M305.794 257.618L294.663 260.314V204.917L305.794 202.242V257.618Z" fill="#640000"/>
<path d="M320.63 254.017L309.48 256.713V214.774L320.63 212.099V254.017Z" fill="#640000"/>
<path d="M335.484 250.436L324.353 253.132V177.074L335.484 174.378V250.436Z" fill="#640000"/>
<path d="M350.318 246.835L339.187 249.531V156.99L350.318 154.294V246.835Z" fill="#640000"/>
<path d="M287.328 261.94L358.058 245.992V154.459" stroke="#2F3554" stroke-width="1.0501" stroke-miterlimit="10"/>
<path d="M183.755 188.289C184.247 188.473 184.726 188.7 185.186 188.968L189.624 191.705C189.833 191.85 190.062 191.954 190.302 192.014C190.556 192.075 190.818 192.075 191.072 192.014C197.344 190.553 197.399 181.334 192.301 178.144C191.332 177.651 190.415 177.036 189.569 176.313C188.91 175.499 188.297 174.64 187.735 173.74C187.42 173.309 187.005 172.983 186.536 172.798C186.067 172.613 185.562 172.576 185.076 172.691C184.667 172.912 184.312 173.241 184.041 173.65C183.769 174.058 183.59 174.534 183.517 175.037C183.39 176.041 183.169 177.027 182.857 177.979C182.57 178.562 182.225 179.108 181.83 179.605C181.257 180.417 180.73 181.27 180.253 182.157C179.704 182.985 179.443 184.009 179.519 185.038C179.662 185.61 179.93 186.134 180.298 186.562C180.666 186.989 181.123 187.307 181.628 187.487C182.27 187.795 182.985 188.001 183.755 188.289Z" fill="#FDB9A9"/>
<path d="M223.97 225.495C224.791 227.109 225.332 228.883 225.566 230.722C225.555 232.519 225.175 234.289 224.456 235.895C223.737 237.501 222.699 238.899 221.421 239.982C217.944 243.378 213.555 245.37 208.952 245.642C207.778 245.772 206.593 245.574 205.504 245.065C204.003 243.994 202.862 242.395 202.258 240.518C196.574 227.389 190.357 211.152 189.788 196.356C189.605 191.767 193.181 183.68 197.986 186.726C203.267 190.08 208.163 198.311 211.794 203.641C216.475 210.465 220.553 217.784 223.97 225.495Z" fill="white"/>
<defs>
<linearGradient id="paint0_linear_98_1204" x1="187.349" y1="297.499" x2="218.203" y2="668.538" gradientUnits="userSpaceOnUse">
<stop offset="0.01"/>
<stop offset="0.08" stop-opacity="0.69"/>
<stop offset="0.21" stop-opacity="0.32"/>
<stop offset="1" stop-opacity="0"/>
</linearGradient>
<linearGradient id="paint1_linear_98_1204" x1="412.888" y1="205.803" x2="378.314" y2="653.742" gradientUnits="userSpaceOnUse">
<stop offset="0.01"/>
<stop offset="0.08" stop-opacity="0.69"/>
<stop offset="0.21" stop-opacity="0.32"/>
<stop offset="1" stop-opacity="0"/>
</linearGradient>
<linearGradient id="paint2_linear_98_1204" x1="389.892" y1="432.186" x2="343.156" y2="510.751" gradientUnits="userSpaceOnUse">
<stop offset="0.01"/>
<stop offset="0.08" stop-opacity="0.69"/>
<stop offset="0.21" stop-opacity="0.32"/>
<stop offset="1" stop-opacity="0"/>
</linearGradient>
<linearGradient id="paint3_linear_98_1204" x1="393.376" y1="371.087" x2="319.466" y2="460.854" gradientUnits="userSpaceOnUse">
<stop offset="0.01"/>
<stop offset="0.08" stop-opacity="0.69"/>
<stop offset="0.21" stop-opacity="0.32"/>
<stop offset="1" stop-opacity="0"/>
</linearGradient>
<linearGradient id="paint4_linear_98_1204" x1="468.323" y1="469.597" x2="407.305" y2="483.567" gradientUnits="userSpaceOnUse">
<stop offset="0.01"/>
<stop offset="0.08" stop-opacity="0.69"/>
<stop offset="0.21" stop-opacity="0.32"/>
<stop offset="1" stop-opacity="0"/>
</linearGradient>
<linearGradient id="paint5_linear_98_1204" x1="370.472" y1="151.598" x2="354.381" y2="597.989" gradientUnits="userSpaceOnUse">
<stop offset="0.08" stop-opacity="0.69"/>
<stop offset="0.21" stop-opacity="0.32"/>
<stop offset="0.416667" stop-color="#BD9941"/>
<stop offset="1" stop-opacity="0"/>
</linearGradient>
<linearGradient id="paint6_linear_98_1204" x1="496.967" y1="485.853" x2="435.947" y2="499.84" gradientUnits="userSpaceOnUse">
<stop offset="0.01"/>
<stop offset="0.08" stop-opacity="0.69"/>
<stop offset="0.21" stop-opacity="0.32"/>
<stop offset="1" stop-opacity="0"/>
</linearGradient>
<linearGradient id="paint7_linear_98_1204" x1="489.833" y1="507.42" x2="484.65" y2="460.02" gradientUnits="userSpaceOnUse">
<stop stop-opacity="0"/>
<stop offset="0.99"/>
</linearGradient>
<linearGradient id="paint8_linear_98_1204" x1="438.428" y1="270.121" x2="438.428" y2="337.596" gradientUnits="userSpaceOnUse">
<stop stop-color="#641259"/>
<stop offset="1" stop-color="#140D13" stop-opacity="0.53"/>
</linearGradient>
<linearGradient id="paint9_linear_98_1204" x1="435.242" y1="355.386" x2="502.771" y2="532.169" gradientUnits="userSpaceOnUse">
<stop stop-opacity="0"/>
<stop offset="0.99"/>
</linearGradient>
<linearGradient id="paint10_linear_98_1204" x1="480.733" y1="282.013" x2="366.71" y2="368.49" gradientUnits="userSpaceOnUse">
<stop offset="0.01"/>
<stop offset="0.08" stop-opacity="0.69"/>
<stop offset="0.21" stop-opacity="0.32"/>
<stop offset="1" stop-opacity="0"/>
</linearGradient>
<linearGradient id="paint11_linear_98_1204" x1="444.997" y1="294.988" x2="476.135" y2="294.988" gradientUnits="userSpaceOnUse">
<stop stop-color="#E5C5D5"/>
<stop offset="0.42" stop-color="#EAD4D1"/>
<stop offset="1" stop-color="#F0E9CB"/>
</linearGradient>
<linearGradient id="paint12_linear_98_1204" x1="586.089" y1="491.924" x2="410.284" y2="335.259" gradientUnits="userSpaceOnUse">
<stop offset="0.01"/>
<stop offset="0.08" stop-opacity="0.69"/>
<stop offset="0.21" stop-opacity="0.32"/>
<stop offset="1" stop-opacity="0"/>
</linearGradient>
<linearGradient id="paint13_linear_98_1204" x1="571.236" y1="396.194" x2="502.413" y2="396.194" gradientUnits="userSpaceOnUse">
<stop stop-opacity="0"/>
<stop offset="0.99"/>
</linearGradient>
<linearGradient id="paint14_linear_98_1204" x1="380.246" y1="266.94" x2="406.396" y2="266.94" gradientUnits="userSpaceOnUse">
<stop stop-color="#E5C5D5"/>
<stop offset="0.42" stop-color="#EAD4D1"/>
<stop offset="1" stop-color="#F0E9CB"/>
</linearGradient>
<linearGradient id="paint15_linear_98_1204" x1="193.401" y1="506.494" x2="198.584" y2="459.094" gradientUnits="userSpaceOnUse">
<stop stop-opacity="0"/>
<stop offset="0.99"/>
</linearGradient>
<linearGradient id="paint16_linear_98_1204" x1="243.427" y1="352.238" x2="175.337" y2="530.441" gradientUnits="userSpaceOnUse">
<stop stop-color="#E5C5D5"/>
<stop offset="0.42" stop-color="#EAD4D1"/>
<stop offset="1" stop-color="#F0E9CB"/>
</linearGradient>
<linearGradient id="paint17_linear_98_1204" x1="226.464" y1="437.187" x2="313.673" y2="525.288" gradientUnits="userSpaceOnUse">
<stop stop-color="#E5C5D5"/>
<stop offset="0.42" stop-color="#EAD4D1"/>
<stop offset="1" stop-color="#F0E9CB"/>
</linearGradient>
<linearGradient id="paint18_linear_98_1204" x1="175.686" y1="483.941" x2="283.296" y2="420.459" gradientUnits="userSpaceOnUse">
<stop offset="0.01"/>
<stop offset="0.08" stop-opacity="0.69"/>
<stop offset="0.21" stop-opacity="0.32"/>
<stop offset="1" stop-opacity="0"/>
</linearGradient>
<linearGradient id="paint19_linear_98_1204" x1="211.391" y1="426.649" x2="163.521" y2="465.753" gradientUnits="userSpaceOnUse">
<stop stop-opacity="0"/>
<stop offset="0.99"/>
</linearGradient>
<linearGradient id="paint20_linear_98_1204" x1="235.725" y1="294" x2="207.1" y2="294" gradientUnits="userSpaceOnUse">
<stop stop-color="#E5C5D5"/>
<stop offset="0.42" stop-color="#EAD4D1"/>
<stop offset="1" stop-color="#F0E9CB"/>
</linearGradient>
<linearGradient id="paint21_linear_98_1204" x1="97.0532" y1="490.936" x2="272.876" y2="334.274" gradientUnits="userSpaceOnUse">
<stop offset="0.01"/>
<stop offset="0.08" stop-opacity="0.69"/>
<stop offset="0.21" stop-opacity="0.32"/>
<stop offset="1" stop-opacity="0"/>
</linearGradient>
<linearGradient id="paint22_linear_98_1204" x1="111.926" y1="395.246" x2="180.675" y2="395.246" gradientUnits="userSpaceOnUse">
<stop stop-opacity="0"/>
<stop offset="0.99"/>
</linearGradient>
</defs>
</svg>
